<svg version="1.1" xmlns="http://www.w3.org/2000/svg" xmlns:xlink="http://www.w3.org/1999/xlink" width="79" height="79" viewBox="0,0,79,79"><defs><linearGradient x1="240" y1="154" x2="240" y2="164" gradientUnits="userSpaceOnUse" id="color-1"><stop offset="0" stop-color="#1d1d1d"/><stop offset="1" stop-color="#5d5d5d"/></linearGradient><linearGradient x1="240" y1="175" x2="240" y2="185" gradientUnits="userSpaceOnUse" id="color-2"><stop offset="0" stop-color="#1d1d1d"/><stop offset="1" stop-color="#5d5d5d"/></linearGradient><linearGradient x1="240" y1="196" x2="240" y2="206" gradientUnits="userSpaceOnUse" id="color-3"><stop offset="0" stop-color="#1d1d1d"/><stop offset="1" stop-color="#5d5d5d"/></linearGradient></defs><g transform="translate(-200.5,-140.5)"><g data-paper-data="{&quot;isPaintingLayer&quot;:true}" fill-rule="nonzero" stroke="#000000" stroke-width="2" stroke-linecap="butt" stroke-linejoin="miter" stroke-miterlimit="10" stroke-dasharray="" stroke-dashoffset="0" style="mix-blend-mode: normal"><path d="M201.5,204.4c0,-10.25424 0,-33.99616 0,-49.2c0,-8.04542 7.65686,-13.7 14,-13.7c13.45585,0 63,0 63,0c0,0 0,53.11598 0,65.9c0,5.2467 -6.01266,11.1 -14.4,11.1c-15.45941,0 -38.98634,0 -47.8,0c-6.63174,0 -14.8,-5.86258 -14.8,-14.1z" fill="#9accff"/><path d="M216.2,164v-10h47.6v10z" fill="url(#color-1)"/><path d="M216.2,185v-10h47.6v10z" fill="url(#color-2)"/><path d="M216.2,206v-10h47.6v10z" fill="url(#color-3)"/></g></g></svg>